<svg id="Layer_1" data-name="Layer 1" xmlns="http://www.w3.org/2000/svg" viewBox="0 0 492 302.8"><defs><style>.cls-1{fill:#fff;}.cls-2{fill:#ed1a3b;}.cls-3{fill:#0083ca;}.cls-4{fill:#50b848;}.cls-5{fill:#ffd400;}.cls-6{fill:#a7a9ac;}</style></defs><path class="cls-1" d="M514.83,330.82H456.75A29.2,29.2,0,0,0,427.58,360v15.17a29.2,29.2,0,0,0,29.17,29.17h58.08A29.21,29.21,0,0,0,544,375.17V360a29.21,29.21,0,0,0-29.17-29.18m14.6,44.35a14.61,14.61,0,0,1-14.6,14.59H456.75a14.61,14.61,0,0,1-14.6-14.59V360a14.62,14.62,0,0,1,14.6-14.6h58.08a14.62,14.62,0,0,1,14.6,14.6Z" transform="translate(-52 -192.96)"/><path class="cls-1" d="M416.62,330.74H337.78c-18.9,0-34.28,14.41-34.28,32.12v9.44c0,17.72,15.38,32.13,34.28,32.13h78.84a6.22,6.22,0,0,0,6-6.35v-1.86a6.22,6.22,0,0,0-6-6.35H337.78c-10.87,0-19.71-7.87-19.71-17.55v-9.44c0-9.68,8.84-17.55,19.71-17.55h78.84a6.22,6.22,0,0,0,6-6.35v-1.86a6.22,6.22,0,0,0-6-6.35" transform="translate(-52 -192.96)"/><path class="cls-1" d="M290.67,330.74H211.83c-18.9,0-34.27,14.41-34.27,32.12v9.44c0,17.72,15.37,32.13,34.27,32.13h78.84a6.21,6.21,0,0,0,6-6.35v-1.86a6.21,6.21,0,0,0-6-6.35H211.83c-10.86,0-19.7-7.87-19.7-17.55v-9.44c0-9.68,8.84-17.55,19.7-17.55h78.84a6.21,6.21,0,0,0,6-6.35v-1.86a6.21,6.21,0,0,0-6-6.35" transform="translate(-52 -192.96)"/><path class="cls-1" d="M165.12,330.74H86.27c-18.9,0-34.27,14.41-34.27,32.12v9.44c0,17.72,15.37,32.13,34.27,32.13h78.85a6.22,6.22,0,0,0,6-6.35v-1.86a6.22,6.22,0,0,0-6-6.35H86.27c-10.86,0-19.7-7.87-19.7-17.55v-9.44c0-9.68,8.84-17.55,19.7-17.55h78.85a6.22,6.22,0,0,0,6-6.35v-1.86a6.22,6.22,0,0,0-6-6.35" transform="translate(-52 -192.96)"/><path class="cls-1" d="M164.19,360.3H85.68a6,6,0,0,0-6,6v2.52a6,6,0,0,0,6,6h78.51a6,6,0,0,0,6-6v-2.52a6,6,0,0,0-6-6" transform="translate(-52 -192.96)"/><path class="cls-1" d="M482.65,423.88H113.35a1.92,1.92,0,0,1-1.91-1.92v-2.37a1.92,1.92,0,0,1,1.91-1.92h369.3a1.92,1.92,0,0,1,1.91,1.92V422a1.92,1.92,0,0,1-1.91,1.92" transform="translate(-52 -192.96)"/><path class="cls-2" d="M268.49,211.23c-33.75,28.29-53.58,43.48-83.84,66.57-4.47,3.42-8.46,7.48-13.23,10.48a126.72,126.72,0,0,1-14.29,7.23c-9.52,4.43-19.11,8.69-28.87,12.55-4.57,1.8-9.32,3.41-14.21,3.2-1.44-.07-3.23-.65-3.33-2.08a3.08,3.08,0,0,1,.65-1.81c4.06-6.46,9.63-11.83,15.2-17.05q9.6-9,19.5-17.63s52.69-45.06,97.86-73.06c5.92-3.67,13-6.95,20-6.65,0,0,19.9,3,4.6,18.25" transform="translate(-52 -192.96)"/><path class="cls-3" d="M321.49,211.23c-33.74,28.29-53.58,43.48-83.83,66.57-4.48,3.42-8.47,7.48-13.24,10.48a126.72,126.72,0,0,1-14.29,7.23c-9.52,4.43-19.11,8.69-28.87,12.55-4.57,1.8-9.32,3.41-14.21,3.2-1.44-.07-3.23-.65-3.33-2.08a3.08,3.08,0,0,1,.65-1.81c4.07-6.46,9.63-11.83,15.21-17.05q9.6-9,19.49-17.63s52.69-45.06,97.86-73.06c5.92-3.67,13-6.95,20-6.65,0,0,19.9,3,4.6,18.25" transform="translate(-52 -192.96)"/><path class="cls-4" d="M374.45,211.23c-33.74,28.29-53.58,43.48-83.83,66.57-4.48,3.42-8.47,7.48-13.23,10.48a126,126,0,0,1-14.3,7.23c-9.51,4.43-19.1,8.69-28.87,12.55-4.57,1.8-9.32,3.41-14.2,3.2-1.44-.07-3.23-.65-3.34-2.08a3.22,3.22,0,0,1,.65-1.81c4.07-6.46,9.63-11.83,15.21-17.05q9.6-9,19.5-17.63s52.69-45.06,97.86-73.06c5.92-3.67,13-6.95,20-6.65,0,0,19.9,3,4.59,18.25" transform="translate(-52 -192.96)"/><path class="cls-5" d="M426.69,211.23c-33.74,28.29-53.58,43.48-83.83,66.57-4.48,3.42-8.47,7.48-13.23,10.48a126.86,126.86,0,0,1-14.3,7.23c-9.51,4.43-19.11,8.69-28.87,12.55-4.57,1.8-9.32,3.41-14.21,3.2-1.43-.07-3.23-.65-3.33-2.08a3.15,3.15,0,0,1,.65-1.81c4.07-6.46,9.63-11.83,15.21-17.05q9.6-9,19.49-17.63s52.7-45.06,97.86-73.06c5.92-3.67,13-6.95,20-6.65,0,0,19.9,3,4.6,18.25" transform="translate(-52 -192.96)"/><path class="cls-6" d="M323.16,311.19s30.19,2.25,72.61-30.51c30.12-23.27,50.09-38.29,83.84-66.58,15.3-15.24-5.17-21.12-5.17-21.12-7-.3-14,3-20,6.65-45.17,28-97.86,73.06-97.86,73.06q-9.89,8.65-19.49,17.63c-5.58,5.22-11.14,10.59-15.21,17.05a3.08,3.08,0,0,0-.65,1.81c.1,1.43,1.89,2,3.33,2.08" transform="translate(-52 -192.96)"/><path class="cls-1" d="M319.94,447v-2a4.33,4.33,0,0,0-4.24-4.38h-1.24a4.33,4.33,0,0,0-4.24,4.38v6.29h0v15.9a18,18,0,0,1-18,17.94H270.1a18,18,0,0,1-18-17.94V447h0v-2.48a4.1,4.1,0,0,0-4.25-3.91h-1.24a4.1,4.1,0,0,0-4.25,3.91v5.63l0,0v17a27.69,27.69,0,0,0,27.66,27.66h22.18a27.69,27.69,0,0,0,27.66-27.66V447Z" transform="translate(-52 -192.96)"/><path class="cls-1" d="M384.26,486.07V486h-.55l-.25,0h-2.41v0H349.77a13.65,13.65,0,0,1-13.64-13.63V446.13h0v-1.61a4.1,4.1,0,0,0-4.23-3.92h-1.24a4.09,4.09,0,0,0-4.23,3.92v2.33h0v25.53a23.38,23.38,0,0,0,23.35,23.35H381v0h2.44l.23,0h.57v-.07a4.21,4.21,0,0,0,3.24-4.17v-1.25a4.22,4.22,0,0,0-3.24-4.17" transform="translate(-52 -192.96)"/><path class="cls-1" d="M171.56,450.27H233a4.17,4.17,0,0,0,4.12-4.18l0-1.24a4.16,4.16,0,0,0-4-4.29l-.85,0h0l-1.7,0v0h-59c-15.76,0-27.66,10.42-27.66,24.22v4.74c0,14.25,12.41,25.85,27.66,25.85h53.08s12,1.12,12.47-17.84c.26-10.77-7.27-13.42-7.27-13.42h-34a2.31,2.31,0,0,0-1.75.74,2.57,2.57,0,0,0-.69,1.81v3.4a2.5,2.5,0,0,0,.69,1.86,2.35,2.35,0,0,0,1.75.7h28.62a3.46,3.46,0,0,1,3.66,2.75,10.1,10.1,0,0,1,.18,3.47,12.59,12.59,0,0,1-.82,3.37,5.56,5.56,0,0,1-2.93,3.38l-.17,0H171.56c-9.89,0-17.94-7.23-17.94-16.13v-4.74c0-9.52,9-14.5,17.94-14.5" transform="translate(-52 -192.96)"/><path class="cls-1" d="M448.47,440.63v-.08H417.36A23.38,23.38,0,0,0,394,463.9v23.2h0v4.61a4.17,4.17,0,0,0,4.27,4.05h1.24a4.17,4.17,0,0,0,4.27-4.05v-4.59h0V463.9a13.64,13.64,0,0,1,13.63-13.63h31.11v-.08A4.09,4.09,0,0,0,452.1,446V444.8a4.09,4.09,0,0,0-3.63-4.17" transform="translate(-52 -192.96)"/><path class="cls-1" d="M449.57,477.48H411.18a2.52,2.52,0,0,1-2.52-2.52V470.4a2.53,2.53,0,0,1,2.52-2.53h38.39a2.54,2.54,0,0,1,2.53,2.53V475a2.53,2.53,0,0,1-2.53,2.52" transform="translate(-52 -192.96)"/></svg>